<mxfile host="app.diagrams.net" agent="Mozilla/5.0 (Windows NT 10.0; Win64; x64) AppleWebKit/537.36 (KHTML, like Gecko) Chrome/133.0.0.0 Safari/537.36" version="26.0.15">
  <diagram name="Page-1" id="qxeGlxO1wTCCG55qbI5i">
    <mxGraphModel dx="1050" dy="530" grid="1" gridSize="10" guides="1" tooltips="1" connect="1" arrows="1" fold="1" page="1" pageScale="1" pageWidth="850" pageHeight="1100" math="0" shadow="0">
      <root>
        <mxCell id="0" />
        <mxCell id="1" parent="0" />
        <mxCell id="OGXQOEup_NDldtCrAAuj-1" value="&lt;u&gt;Driver Frontend&lt;/u&gt;&lt;div&gt;- Accepts Assignment&lt;/div&gt;&lt;div&gt;- Completes Delivery&lt;/div&gt;" style="rounded=0;whiteSpace=wrap;html=1;" parent="1" vertex="1">
          <mxGeometry x="360" y="30" width="130" height="60" as="geometry" />
        </mxCell>
        <mxCell id="OGXQOEup_NDldtCrAAuj-2" value="Temporal" style="rounded=0;whiteSpace=wrap;html=1;fillColor=#fff2cc;strokeColor=#d6b656;" parent="1" vertex="1">
          <mxGeometry x="355" y="300" width="130" height="40" as="geometry" />
        </mxCell>
        <mxCell id="OGXQOEup_NDldtCrAAuj-3" value="1. Driver accepts an assignment&lt;div&gt;8. Driver completes delivery and marks order as completed&lt;/div&gt;" style="text;html=1;align=center;verticalAlign=middle;whiteSpace=wrap;rounded=0;" parent="1" vertex="1">
          <mxGeometry x="230" y="110" width="150" height="30" as="geometry" />
        </mxCell>
        <mxCell id="OGXQOEup_NDldtCrAAuj-6" value="" style="endArrow=classic;html=1;rounded=0;exitX=0.5;exitY=1;exitDx=0;exitDy=0;entryX=0.5;entryY=0;entryDx=0;entryDy=0;" parent="1" edge="1">
          <mxGeometry width="50" height="50" relative="1" as="geometry">
            <mxPoint x="420" y="90" as="sourcePoint" />
            <mxPoint x="420" y="160" as="targetPoint" />
          </mxGeometry>
        </mxCell>
        <mxCell id="OGXQOEup_NDldtCrAAuj-7" value="&lt;b&gt;HTTP POST&lt;/b&gt;" style="text;html=1;align=center;verticalAlign=middle;whiteSpace=wrap;rounded=0;fontColor=#007FFF;" parent="1" vertex="1">
          <mxGeometry x="265" y="60" width="80" height="30" as="geometry" />
        </mxCell>
        <mxCell id="OGXQOEup_NDldtCrAAuj-17" value="Notification Service" style="rounded=0;whiteSpace=wrap;html=1;fillColor=#fff2cc;strokeColor=#d6b656;" parent="1" vertex="1">
          <mxGeometry x="515" y="410" width="120" height="40" as="geometry" />
        </mxCell>
        <mxCell id="OGXQOEup_NDldtCrAAuj-19" value="&lt;div&gt;&lt;u&gt;Customer Frontend&lt;/u&gt;&lt;/div&gt;&lt;div&gt;- Receives Notification&lt;/div&gt;" style="rounded=0;whiteSpace=wrap;html=1;" parent="1" vertex="1">
          <mxGeometry x="605" y="510" width="150" height="60" as="geometry" />
        </mxCell>
        <mxCell id="OGXQOEup_NDldtCrAAuj-21" value="3. Record order status as Driver assigned" style="text;html=1;align=center;verticalAlign=middle;whiteSpace=wrap;rounded=0;" parent="1" vertex="1">
          <mxGeometry x="245" y="305" width="110" height="30" as="geometry" />
        </mxCell>
        <mxCell id="OGXQOEup_NDldtCrAAuj-22" value="4. Assigns driver to order" style="text;html=1;align=center;verticalAlign=middle;whiteSpace=wrap;rounded=0;" parent="1" vertex="1">
          <mxGeometry x="515" y="250" width="110" height="30" as="geometry" />
        </mxCell>
        <mxCell id="OGXQOEup_NDldtCrAAuj-23" value="&lt;div&gt;&lt;br&gt;&lt;/div&gt;&lt;div&gt;&lt;br&gt;&lt;/div&gt;6. Notifies customer when order has been assigned&lt;div&gt;7. Notifies customer when delivery is completed&lt;/div&gt;" style="text;html=1;align=center;verticalAlign=middle;whiteSpace=wrap;rounded=0;" parent="1" vertex="1">
          <mxGeometry x="410" y="469" width="170" height="30" as="geometry" />
        </mxCell>
        <mxCell id="OGXQOEup_NDldtCrAAuj-24" value="" style="endArrow=classic;html=1;rounded=0;entryX=0;entryY=0.75;entryDx=0;entryDy=0;exitX=0.5;exitY=1;exitDx=0;exitDy=0;" parent="1" source="OGXQOEup_NDldtCrAAuj-17" edge="1">
          <mxGeometry width="50" height="50" relative="1" as="geometry">
            <mxPoint x="395" y="420" as="sourcePoint" />
            <mxPoint x="605" y="535" as="targetPoint" />
            <Array as="points">
              <mxPoint x="575" y="535" />
            </Array>
          </mxGeometry>
        </mxCell>
        <mxCell id="z3Uz3JQYOHJPc0cyilSo-1" value="Driver Service" style="rounded=0;whiteSpace=wrap;html=1;fillColor=#fff2cc;strokeColor=#d6b656;" parent="1" vertex="1">
          <mxGeometry x="355" y="160" width="130" height="40" as="geometry" />
        </mxCell>
        <mxCell id="z3Uz3JQYOHJPc0cyilSo-2" value="" style="endArrow=classic;html=1;rounded=0;exitX=0.5;exitY=1;exitDx=0;exitDy=0;entryX=0.5;entryY=0;entryDx=0;entryDy=0;" parent="1" source="z3Uz3JQYOHJPc0cyilSo-1" target="OGXQOEup_NDldtCrAAuj-2" edge="1">
          <mxGeometry width="50" height="50" relative="1" as="geometry">
            <mxPoint x="419.5" y="200" as="sourcePoint" />
            <mxPoint x="420" y="260" as="targetPoint" />
          </mxGeometry>
        </mxCell>
        <mxCell id="z3Uz3JQYOHJPc0cyilSo-3" value="&lt;b&gt;HTTP POST&lt;/b&gt;" style="text;html=1;align=center;verticalAlign=middle;whiteSpace=wrap;rounded=0;fontColor=#007FFF;" parent="1" vertex="1">
          <mxGeometry x="265" y="190" width="80" height="30" as="geometry" />
        </mxCell>
        <mxCell id="z3Uz3JQYOHJPc0cyilSo-4" value="2. Driver service sends request to Temporal Orchestrator" style="text;html=1;align=center;verticalAlign=middle;whiteSpace=wrap;rounded=0;" parent="1" vertex="1">
          <mxGeometry x="230" y="220" width="150" height="30" as="geometry" />
        </mxCell>
        <mxCell id="z3Uz3JQYOHJPc0cyilSo-5" style="edgeStyle=orthogonalEdgeStyle;rounded=0;orthogonalLoop=1;jettySize=auto;html=1;exitX=0.5;exitY=1;exitDx=0;exitDy=0;" parent="1" source="z3Uz3JQYOHJPc0cyilSo-4" target="z3Uz3JQYOHJPc0cyilSo-4" edge="1">
          <mxGeometry relative="1" as="geometry" />
        </mxCell>
        <mxCell id="z3Uz3JQYOHJPc0cyilSo-6" value="" style="endArrow=classic;html=1;rounded=0;exitX=1;exitY=0.5;exitDx=0;exitDy=0;entryX=1;entryY=0.5;entryDx=0;entryDy=0;" parent="1" source="OGXQOEup_NDldtCrAAuj-17" target="z3Uz3JQYOHJPc0cyilSo-1" edge="1">
          <mxGeometry width="50" height="50" relative="1" as="geometry">
            <mxPoint x="670" y="390" as="sourcePoint" />
            <mxPoint x="720" y="340" as="targetPoint" />
            <Array as="points">
              <mxPoint x="660" y="430" />
              <mxPoint x="660" y="180" />
            </Array>
          </mxGeometry>
        </mxCell>
        <mxCell id="z3Uz3JQYOHJPc0cyilSo-7" value="5. Notification service invalidates the assigned order to other drivers" style="text;html=1;align=center;verticalAlign=middle;whiteSpace=wrap;rounded=0;" parent="1" vertex="1">
          <mxGeometry x="660" y="305" width="150" height="30" as="geometry" />
        </mxCell>
        <mxCell id="z3Uz3JQYOHJPc0cyilSo-8" value="&lt;b&gt;WebSocket&lt;/b&gt;" style="text;html=1;align=center;verticalAlign=middle;whiteSpace=wrap;rounded=0;fontColor=#007FFF;" parent="1" vertex="1">
          <mxGeometry x="695" y="270" width="80" height="30" as="geometry" />
        </mxCell>
        <mxCell id="ssaZTQmSq7fNtntjq3HQ-1" value="" style="endArrow=classic;html=1;rounded=0;exitX=1;exitY=0.5;exitDx=0;exitDy=0;entryX=1;entryY=1;entryDx=0;entryDy=0;" parent="1" source="OGXQOEup_NDldtCrAAuj-2" target="z3Uz3JQYOHJPc0cyilSo-1" edge="1">
          <mxGeometry width="50" height="50" relative="1" as="geometry">
            <mxPoint x="380" y="300" as="sourcePoint" />
            <mxPoint x="430" y="250" as="targetPoint" />
            <Array as="points">
              <mxPoint x="510" y="320" />
              <mxPoint x="510" y="200" />
            </Array>
          </mxGeometry>
        </mxCell>
        <mxCell id="7BMU-uZPqzTsajWhOb_0-1" value="" style="endArrow=classic;html=1;rounded=0;entryX=0;entryY=0.5;entryDx=0;entryDy=0;exitX=0.5;exitY=1;exitDx=0;exitDy=0;" edge="1" parent="1" target="OGXQOEup_NDldtCrAAuj-17">
          <mxGeometry width="50" height="50" relative="1" as="geometry">
            <mxPoint x="420" y="339" as="sourcePoint" />
            <mxPoint x="450" y="289" as="targetPoint" />
            <Array as="points">
              <mxPoint x="420" y="430" />
            </Array>
          </mxGeometry>
        </mxCell>
      </root>
    </mxGraphModel>
  </diagram>
</mxfile>
